<?xml version="1.0" encoding="utf-8"?>
<!-- Generator: Adobe Illustrator 16.0.3, SVG Export Plug-In . SVG Version: 6.00 Build 0)  -->
<!DOCTYPE svg PUBLIC "-//W3C//DTD SVG 1.1//EN" "http://www.w3.org/Graphics/SVG/1.1/DTD/svg11.dtd">
<svg version="1.1" id="Capa_1" xmlns="http://www.w3.org/2000/svg" xmlns:xlink="http://www.w3.org/1999/xlink" x="0px" y="0px"
	 width="1280px" height="800px" viewBox="0 0 1280 800" enable-background="new 0 0 1280 800" xml:space="preserve">
<g>
	<g>
		<path fill-rule="evenodd" clip-rule="evenodd" fill="#FEFEFE" d="M596.85,760.632c-147.227,0-294.453-0.005-441.68,0.053
			c-2.082,0-2.551-0.47-2.55-2.551c0.055-229.307,0.055-458.614,0-687.92c-0.001-2.081,0.468-2.55,2.55-2.55
			c294.638,0.054,589.275,0.054,883.913,0c2.081,0,2.551,0.467,2.551,2.549c-0.055,229.307-0.055,458.613,0,687.92
			c0,2.081-0.467,2.552-2.55,2.552C891.673,760.627,744.262,760.632,596.85,760.632z M655.24,542.436
			c-17.278,30.235-34.558,60.472-52.035,91.055c13.748,0,27.037,0.027,40.325-0.021c2.792-0.01,4.699-1.424,5.954-4.02
			c3.3-6.826,7.363-13.25,11.117-19.821c4.998-8.747,9.994-17.505,15.08-26.207c4.088-6.996,8.021-14.082,12.034-21.122
			c3.355-5.886,6.727-11.763,10.091-17.644c1.728-2.5,2.939-5.299,4.477-7.892c5.735-9.676,11.161-19.526,16.776-29.267
			c5.35-9.28,10.629-18.599,15.931-27.906c5.61-9.847,11.257-19.675,16.887-29.511c8.211-14.349,16.484-28.66,24.619-43.055
			c5.618-9.943,11.355-19.824,17.046-29.728c8.236-14.334,16.485-28.659,24.627-43.048c5.625-9.94,11.504-19.737,17.019-29.747
			c3.838-6.966,8.08-13.708,12.028-20.615c4.247-7.43,8.299-14.972,12.551-22.398c6.092-10.643,12.414-21.157,18.401-31.857
			c4.923-8.798,10.095-17.451,14.949-26.292c3.604-6.563,7.441-13.036,11.3-19.476c1.701-2.84,1.635-2.855-1.658-2.887
			c-35.672-0.347-71.347,0.551-107.021-0.475c-15.811-0.455-31.643-0.065-47.466-0.098c-1.305-0.002-2,0.323-2.668,1.608
			c-1.975,3.797-4.222,7.474-6.452,11.106c-4.359,7.098-8.548,14.303-12.762,21.479c-4.24,7.223-8.372,14.538-12.695,21.698
			c-7.953,13.169-15.579,26.53-23.549,39.687c-6.385,10.542-12.539,21.223-18.808,31.835c-5.042,8.537-10.121,17.052-15.151,25.596
			c-6.343,10.774-12.724,21.526-18.946,32.369c-2.755,4.8-5.67,9.51-8.47,14.275c-5.704,9.709-11.469,19.39-17.186,29.096
			c-4.034,6.851-8.205,13.621-12.167,20.513c-4.578,7.967-9.461,15.751-13.933,23.787c-4.647,8.352-9.824,16.408-14.73,24.616
			c-3.061,5.119-6.051,10.281-9.318,15.841c-8.545-14.8-16.806-29.13-25.09-43.446c-5.588-9.655-11.2-19.295-16.818-28.933
			c-3.914-6.715-7.912-13.381-11.771-20.126c-4.607-8.051-9.39-15.999-13.819-24.157c-2.508-4.618-5.407-9.031-8.005-13.625
			c-5.71-10.097-11.759-19.999-17.479-30.097c-3.476-6.133-7.128-12.188-10.716-18.268c-4.805-8.143-9.369-16.428-14.135-24.594
			c-7.625-13.065-15.403-26.039-22.976-39.133c-5.721-9.892-11.235-19.903-17.33-29.577c-0.392-0.623-1.16-1.404-0.67-2.242
			c0.503-0.86,1.497-0.401,2.255-0.401c22.855-0.025,45.71,0.013,68.564-0.085c1.789-0.008,2.72,0.779,3.394,2.013
			c5.265,9.628,10.987,18.992,16.29,28.604c5.43,9.844,11.324,19.436,16.786,29.277c5.95,10.72,12.271,21.234,18.408,31.851
			c5.056,8.745,10.067,17.515,15.124,26.258c2.329,4.025,4.767,7.988,7.069,12.028c3.841,6.741,7.637,13.508,11.397,20.294
			c1.003,1.812,1.459,1.488,2.35-0.145c3.076-5.646,6.348-11.185,9.472-16.806c4.08-7.34,8.077-14.727,12.153-22.069
			c0.408-0.733,0.498-1.235,0.037-1.987c-1.77-2.887-3.337-5.916-5.085-8.79c-5.705-9.385-11.111-18.938-16.661-28.412
			c-5.731-9.782-11.521-19.527-17.179-29.354c-5.571-9.678-11.256-19.294-16.901-28.93c-5.688-9.707-11.47-19.361-17.146-29.078
			c-3.975-6.802-8.04-13.551-11.947-20.391c-0.828-1.451-1.702-2.063-3.396-2.089c-17.629-0.273-35.254,0.112-52.894-0.381
			c-29.273-0.819-58.578,0.49-87.862-0.663c-5.358-0.21-10.732-0.03-16.1-0.03c-1.785,0-3.571,0-5.605,0
			c2.522,4.337,4.791,8.259,7.08,12.168c4.968,8.481,9.976,16.938,14.912,25.437c6.099,10.5,12.128,21.041,18.217,31.547
			c3.404,5.874,6.88,11.706,10.304,17.568c5.177,8.861,10.37,17.713,15.496,26.604c8.209,14.239,16.625,28.356,24.751,42.645
			c5.69,10.008,11.647,19.868,17.385,29.856c5.334,9.286,10.748,18.532,16.159,27.772c5.819,9.936,11.657,19.861,17.459,29.809
			c8.379,14.365,16.805,28.701,25.084,43.127c5.731,9.987,11.618,19.891,17.402,29.853c5.376,9.262,10.691,18.567,16.193,27.744
			c4.681,7.806,8.8,15.956,13.996,23.452c4.443,7.783,8.886,15.566,13.567,23.767c4.141-8.506,9.396-15.729,13.212-23.766
			c5.279-8.367,10.051-17.03,15.012-25.584c5.508-9.497,10.984-19.014,16.525-28.492c5.54-9.479,11.009-18.994,16.426-28.545
			c5.811-10.245,11.933-20.314,17.784-30.545c5.316-9.296,10.666-18.578,16.096-27.81c5.657-9.617,11.21-19.289,16.76-28.968
			c5.769-10.061,11.744-20.002,17.49-30.083c5.392-9.458,10.899-18.859,16.396-28.261c5.587-9.555,11.081-19.161,16.593-28.758
			c5.835-10.163,11.887-20.201,17.652-30.412c7.207-12.766,14.866-25.275,22.218-37.96c0.972-1.678,2.021-2.316,3.884-2.213
			c5.779,0.32,11.557-0.109,17.365,0.463c6.478,0.639,13.049,0.394,19.567,0.517c10.318,0.194,20.624,1.039,30.952,0.725
			c0.143-0.004,0.289,0.109,0.425,0.164c-5.218,9.44-10.81,18.65-15.867,28.17c-2.761,5.198-6.006,10.138-8.859,15.306
			c-5.132,9.291-10.486,18.46-15.694,27.712c-5.349,9.502-10.753,18.977-16.187,28.429c-5.56,9.672-11.094,19.36-16.652,29.033
			c-3.869,6.735-7.645,13.524-11.485,20.276c-4.456,7.832-8.924,15.657-13.411,23.471c-5.028,8.756-10.264,17.399-15.082,26.269
			c-5.924,10.906-12.241,21.59-18.308,32.412c-4.584,8.178-9.184,16.369-14.028,24.412c-3.914,6.497-7.375,13.266-11.136,19.858
			c-4.427,7.759-9.005,15.432-13.434,23.189C663.271,527.968,659.279,535.215,655.24,542.436z"/>
		<path fill-rule="evenodd" clip-rule="evenodd" fill="#123E07" d="M549.59,548.007c-5.196-7.496-9.315-15.646-13.996-23.452
			c-5.502-9.177-10.817-18.482-16.193-27.744c-5.784-9.962-11.671-19.865-17.402-29.853c-8.279-14.426-16.705-28.762-25.084-43.127
			c-5.802-9.947-11.64-19.873-17.459-29.809c-5.411-9.24-10.825-18.486-16.159-27.772c-5.737-9.988-11.694-19.848-17.385-29.856
			c-8.126-14.289-16.542-28.406-24.751-42.645c-5.126-8.891-10.319-17.742-15.496-26.604c-3.424-5.862-6.899-11.694-10.304-17.568
			c-6.089-10.506-12.118-21.046-18.217-31.547c-4.937-8.499-9.944-16.956-14.912-25.437c-2.289-3.909-4.558-7.831-7.08-12.168
			c2.034,0,3.82,0,5.605,0c5.367,0,10.741-0.18,16.1,0.03c29.284,1.153,58.589-0.156,87.862,0.663
			c17.64,0.494,35.265,0.108,52.894,0.381c1.693,0.026,2.567,0.638,3.396,2.089c3.907,6.84,7.973,13.589,11.947,20.391
			c5.677,9.717,11.459,19.372,17.146,29.078c5.646,9.636,11.33,19.252,16.901,28.93c5.657,9.827,11.447,19.572,17.179,29.354
			c5.55,9.473,10.956,19.026,16.661,28.412c1.748,2.875,3.315,5.903,5.085,8.79c0.461,0.752,0.371,1.254-0.037,1.987
			c-4.076,7.342-8.073,14.729-12.153,22.069c-3.124,5.621-6.396,11.16-9.472,16.806c-0.891,1.633-1.347,1.957-2.35,0.145
			c-3.761-6.786-7.557-13.553-11.397-20.294c-2.303-4.04-4.74-8.003-7.069-12.028c-5.057-8.744-10.068-17.513-15.124-26.258
			c-6.138-10.616-12.458-21.131-18.408-31.851c-5.462-9.841-11.356-19.433-16.786-29.277c-5.303-9.612-11.025-18.976-16.29-28.604
			c-0.674-1.233-1.604-2.021-3.394-2.013c-22.854,0.099-45.709,0.06-68.564,0.085c-0.758,0-1.752-0.458-2.255,0.401
			c-0.49,0.838,0.278,1.62,0.67,2.242c6.095,9.674,11.609,19.685,17.33,29.577c7.572,13.094,15.351,26.068,22.976,39.133
			c4.766,8.166,9.33,16.451,14.135,24.594c3.588,6.08,7.24,12.135,10.716,18.268c5.721,10.098,11.77,20,17.479,30.097
			c2.598,4.593,5.497,9.006,8.005,13.625c4.43,8.159,9.212,16.106,13.819,24.157c3.859,6.745,7.857,13.411,11.771,20.126
			c5.618,9.638,11.23,19.277,16.818,28.933c8.284,14.316,16.545,28.646,25.09,43.446c3.268-5.56,6.258-10.722,9.318-15.841
			c4.906-8.208,10.083-16.265,14.73-24.616c4.472-8.036,9.354-15.82,13.933-23.787c3.962-6.892,8.133-13.662,12.167-20.513
			c5.717-9.706,11.481-19.386,17.186-29.096c2.8-4.766,5.715-9.476,8.47-14.275c6.223-10.843,12.604-21.595,18.946-32.369
			c5.03-8.544,10.109-17.06,15.151-25.596c6.269-10.612,12.423-21.293,18.808-31.835c7.97-13.157,15.596-26.518,23.549-39.687
			c4.323-7.16,8.455-14.475,12.695-21.698c4.214-7.176,8.402-14.381,12.762-21.479c2.23-3.632,4.478-7.309,6.452-11.106
			c0.668-1.285,1.363-1.61,2.668-1.608c15.823,0.033,31.655-0.357,47.466,0.098c35.674,1.026,71.349,0.127,107.021,0.475
			c3.293,0.032,3.359,0.047,1.658,2.887c-3.858,6.44-7.696,12.913-11.3,19.476c-4.854,8.841-10.026,17.494-14.949,26.292
			c-5.987,10.701-12.31,21.214-18.401,31.857c-4.252,7.427-8.304,14.969-12.551,22.398c-3.948,6.907-8.19,13.649-12.028,20.615
			c-5.515,10.01-11.394,19.807-17.019,29.747c-8.142,14.389-16.391,28.714-24.627,43.048c-5.69,9.904-11.428,19.785-17.046,29.728
			c-8.135,14.395-16.408,28.706-24.619,43.055c-5.63,9.836-11.276,19.664-16.887,29.511c-5.302,9.308-10.581,18.626-15.931,27.906
			c-5.615,9.74-11.041,19.591-16.776,29.267c-1.537,2.593-2.749,5.392-4.477,7.892c-3.359-0.956-6.832-0.951-10.271-1.084
			c-3.745-0.145-7.533,0.265-11.245-0.118c-7.007-0.724-14.044-0.49-21.05-1.018c4.039-7.221,8.03-14.468,12.131-21.652
			c4.429-7.758,9.007-15.431,13.434-23.189c3.761-6.593,7.222-13.361,11.136-19.858c4.845-8.043,9.444-16.234,14.028-24.412
			c6.066-10.822,12.384-21.506,18.308-32.412c4.818-8.869,10.054-17.513,15.082-26.269c4.487-7.814,8.955-15.64,13.411-23.471
			c3.841-6.751,7.616-13.541,11.485-20.276c5.559-9.673,11.093-19.361,16.652-29.033c5.434-9.452,10.838-18.927,16.187-28.429
			c5.208-9.252,10.563-18.421,15.694-27.712c2.854-5.168,6.099-10.108,8.859-15.306c5.058-9.52,10.649-18.73,15.867-28.17
			c-0.136-0.055-0.282-0.168-0.425-0.164c-10.328,0.314-20.634-0.531-30.952-0.725c-6.519-0.123-13.09,0.122-19.567-0.517
			c-5.809-0.573-11.586-0.144-17.365-0.463c-1.863-0.103-2.912,0.536-3.884,2.213c-7.352,12.685-15.011,25.194-22.218,37.96
			c-5.766,10.211-11.817,20.25-17.652,30.412c-5.512,9.598-11.006,19.203-16.593,28.758c-5.497,9.402-11.005,18.803-16.396,28.261
			c-5.746,10.081-11.722,20.022-17.49,30.083c-5.55,9.679-11.103,19.351-16.76,28.968c-5.43,9.231-10.779,18.514-16.096,27.81
			c-5.852,10.23-11.974,20.3-17.784,30.545c-5.417,9.551-10.886,19.066-16.426,28.545c-5.541,9.479-11.018,18.995-16.525,28.492
			c-4.961,8.554-9.732,17.217-15.012,25.584c-1.565-1.142-2.937,0.509-4.492,0.285c-6.506-0.937-13.096-0.179-19.619-0.864
			C551.311,547.329,550.422,547.546,549.59,548.007z"/>
		<path fill-rule="evenodd" clip-rule="evenodd" fill="#0B2504" d="M655.24,542.436c7.006,0.527,14.043,0.294,21.05,1.018
			c3.712,0.383,7.5-0.026,11.245,0.118c3.439,0.133,6.912,0.128,10.271,1.084c-3.364,5.881-6.735,11.758-10.091,17.644
			c-4.013,7.04-7.946,14.126-12.034,21.122c-5.086,8.702-10.082,17.46-15.08,26.207c-3.754,6.571-7.817,12.995-11.117,19.821
			c-1.255,2.596-3.162,4.01-5.954,4.02c-13.288,0.049-26.577,0.021-40.325,0.021C620.683,602.907,637.962,572.671,655.24,542.436z"
			/>
		<path fill-rule="evenodd" clip-rule="evenodd" fill="#0B2504" d="M549.59,548.007c0.832-0.461,1.721-0.678,2.668-0.578
			c6.523,0.686,13.113-0.072,19.619,0.864c1.556,0.224,2.927-1.427,4.492-0.285c-3.816,8.037-9.071,15.26-13.212,23.766
			C558.476,563.573,554.033,555.79,549.59,548.007z"/>
	</g>
</g>
</svg>
